<?xml version="1.0"?>
<svg width="1650" height="698" xmlns="http://www.w3.org/2000/svg" xmlns:svg="http://www.w3.org/2000/svg" clip-rule="evenodd" fill-rule="evenodd" version="1.1">
 <g class="layer">
  <title>Layer 1</title>
  <g id="svg_1">
   <path d="m-0.5,-0.5c550,0 1100,0 1650,0c0,232.67 0,465.33 0,698c-550,0 -1100,0 -1650,0c0,-232.67 0,-465.33 0,-698z" fill="none" id="svg_2"/>
  </g>
  <g id="svg_3" transform="matrix(1 0 0 1 0 0)">
   <path d="m333.5,14.5c76.03,-4.05 143.03,18.12 201,66.5c64.19,66.22 86.69,144.72 67.5,235.5c-10.54,47.42 -30.54,90.42 -60,129c-6.47,12.26 -11.8,24.93 -16,38c-1.33,6.67 -2.67,13.33 -4,20c-1.19,48.33 -2.19,96.66 -3,145c-2.11,5.77 -5.94,9.94 -11.5,12.5c-46.49,1.06 -92.99,1.56 -139.5,1.5c-39.52,0.13 -79.02,-0.37 -118.5,-1.5c-9.23,-8.61 -12.9,-19.27 -11,-32c0.27,-8.56 0.77,-17.06 1.5,-25.5c-1.12,-4.74 -3.62,-8.57 -7.5,-11.5c-28.68,-2.48 -57.35,-5.14 -86,-8c-17.11,-6.03 -27.94,-17.87 -32.5,-35.5c-0.67,-40.71 -2.34,-81.38 -5,-122c-1.21,-1.55 -2.71,-2.71 -4.5,-3.5c-13.33,-2 -26.67,-4 -40,-6c-15.73,-7.87 -19.56,-19.71 -11.5,-35.5c18.49,-32.31 37.49,-64.31 57,-96c1.63,-4.18 2.46,-8.51 2.5,-13c-8.2,-95.63 27.47,-169.79 107,-222.5c36.02,-18.62 74.02,-30.45 114,-35.5z" fill="#ffffff" id="svg_4"/>
  </g>
  <g id="svg_9" transform="matrix(1 0 0 1 0 0)">
   <path d="m825.5,116.5c20.36,49.72 41.02,99.39 62,149c21.56,-52.03 42.89,-104.03 64,-156c-0.15,1.05 0.02,2.05 0.5,3c2.58,-6.09 5.42,-12.09 8.5,-18c1,-0.33 2,-0.67 3,-1c18.29,-1.7 36.62,-2.37 55,-2c0,80 0,160 0,240c-14,0 -28,0 -42,0c0.4,-49.18 -0.27,-98.18 -2,-147c0.17,-6.34 0,-12.68 -0.5,-19c-23.48,54.43 -45.82,109.43 -67,165c-0.98,1.82 -2.48,2.99 -4.5,3.5c-11.37,2.44 -22.54,1.94 -33.5,-1.5c-21.88,-55.65 -44.55,-110.99 -68,-166c-0.5,3.65 -0.66,7.32 -0.5,11c-0.83,11.83 -1.33,23.83 -1.5,36c-0.5,39.33 -0.67,78.67 -0.5,118c-14,0 -28,0 -42,0c0,-80 0,-160 0,-240c18.68,-0.18 37.35,0.32 56,1.5c3.69,7.88 7.52,15.71 11.5,23.5c0.69,1.24 1.19,1.24 1.5,0z" fill="#b8c245" id="svg_10"/>
  </g>
  <g id="svg_11">
   <path d="m339.5,94.5c51.42,-3.38 90.58,16.62 117.5,60c19.39,46.56 14.39,90.23 -15,131c-14.43,17.19 -43.1,35.19 -48,40c-4.9,4.81 5.56,9.99 -20,44l-17.92,21.51c15.17,0.5 32.81,2 31.92,1.49c-0.89,-0.5 -2,29.33 -3.5,30.5c-1.5,1.17 -73.8,1.37 -80.5,-0.5c-3.35,-0.94 -1.94,-23.15 -2.65,-32.03c-0.71,-8.88 3.47,-15.41 16.65,-28.97c13.19,-13.56 24.07,-27.14 21.5,-35c-2.57,-7.86 -36.16,-16.39 -53,-25.5c-33.42,-22.15 -49.42,-53.49 -48,-94c3.29,-64.79 36.96,-102.29 101,-112.5z" fill="#1f4b2c" id="svg_12"/>
  </g>
  <g id="svg_13">
   <path d="m1121.5,146.5c60.15,-5.03 95.98,21.97 107.5,81c6.64,43.12 -7.86,76.95 -43.5,101.5c-37.4,16.56 -73.07,13.56 -107,-9c-24.7,-26.25 -34.53,-57.41 -29.5,-93.5c3.06,-29.97 17.56,-52.47 43.5,-67.5c9.52,-4.77 19.19,-8.94 29,-12.5z" fill="#f5f3ef" id="svg_14"/>
  </g>
  <g id="svg_15">
   <path d="m1417.5,336.5c-2.81,-0.82 -5.81,-1.32 -9,-1.5c-10.66,-0.5 -21.33,-0.67 -32,-0.5c0.39,-32.52 -0.27,-64.85 -2,-97c1.45,-13.7 -1.38,-26.37 -8.5,-38c-10.93,-10.36 -23.77,-13.53 -38.5,-9.5c-10.08,3.75 -17.25,10.58 -21.5,20.5c-1.33,41.99 -1.83,83.99 -1.5,126c-16.67,0 -33.33,0 -50,0c0,-62 0,-124 0,-186c15.33,0 30.67,0 46,0c0.64,9.74 1.81,19.41 3.5,29c22.63,-33.76 52.46,-41.92 89.5,-24.5c14.51,10.17 23.68,24 27.5,41.5c1.94,46.67 1.77,93.34 -0.5,140c-1,0 -2,0 -3,0z" fill="#f5f3ef" id="svg_16"/>
  </g>
  <g id="svg_17">
   <path d="m1520.5,146.5c58.54,-5.02 94.04,20.98 106.5,78c5.26,32.72 -1.91,62.22 -21.5,88.5c-39.64,31.94 -81.31,34.94 -125,9c-34.59,-35.01 -43.42,-75.84 -26.5,-122.5c8.84,-22.18 24.34,-37.68 46.5,-46.5c6.75,-2.31 13.42,-4.47 20,-6.5z" fill="#f5f3ef" id="svg_18"/>
  </g>
  <g id="svg_21">
   <path d="m1131.5,185.5c27.38,-1.45 43.88,11.22 49.5,38c2.84,17.36 1.51,34.36 -4,51c-15.94,26.98 -37.44,32.48 -64.5,16.5c-8.09,-7.01 -12.92,-15.85 -14.5,-26.5c-2.61,-18.55 -1.61,-36.88 3,-55c6,-13.52 16.17,-21.52 30.5,-24z" fill="#0b0b0b" id="svg_22"/>
  </g>
  <g id="svg_23">
   <path d="m1523.5,186.5c13.55,-1.53 26.21,0.97 38,7.5c9.4,6.41 15.24,15.25 17.5,26.5c1.51,12.29 1.84,24.63 1,37c-1.96,12.1 -6.8,22.93 -14.5,32.5c-32.8,18.83 -55.96,10.67 -69.5,-24.5c-2.12,-16.38 -1.79,-32.71 1,-49c5.18,-13.34 14.02,-23.34 26.5,-30z" fill="#0b0b0b" id="svg_24"/>
  </g>
  <g id="svg_25">
   <path d="m1374.5,237.5c1.73,32.15 2.39,64.48 2,97c10.67,-0.17 21.34,0 32,0.5c3.19,0.18 6.19,0.68 9,1.5c-14.33,0 -28.67,0 -43,0c0,-33 0,-66 0,-99z" fill="#b5b3b1" id="svg_26"/>
  </g>
  <g id="svg_27">
   <path d="m1237.5,394.5c25.42,-0.53 35.92,11.8 31.5,37c-10.46,15.32 -23.96,18.82 -40.5,10.5c-15.8,-19.67 -12.8,-35.5 9,-47.5z" fill="#f3f1ed" id="svg_28"/>
  </g>
  <g id="svg_29" transform="matrix(1 0 0 1 0 0)">
   <path d="m844.5,398.5c85.77,-0.73 131.77,41.77 138,127.5c-0.22,25.91 -6.72,50.08 -19.5,72.5c-5.46,8.46 -11.29,16.62 -17.5,24.5c8.39,11.39 16.39,23.06 24,35c-11.24,6.02 -23.07,10.86 -35.5,14.5c-8.7,-8.87 -16.87,-18.2 -24.5,-28c-47.08,18.15 -89.75,10.98 -128,-21.5c-10.19,-10.2 -18.03,-22.04 -23.5,-35.5c-16.99,-42.23 -16.66,-84.23 1,-126c12.6,-25.55 32.1,-43.72 58.5,-54.5c9.01,-3.17 18.01,-6.01 27,-8.5z" fill="#b9c145" id="svg_30"/>
  </g>
  <g id="svg_31">
   <path d="m853.5,443.5c41.72,-1.55 66.89,18.11 75.5,59c3.47,23.84 1.47,47.18 -6,70c-1.16,3.32 -2.99,6.16 -5.5,8.5c-3.61,-1.58 -6.78,-4.08 -9.5,-7.5c-3.83,-5.17 -7.67,-10.33 -11.5,-15.5c-16.08,-2.31 -32.08,-1.97 -48,1c11.58,14.41 22.58,29.24 33,44.5c-45.49,12.4 -73.32,-4.6 -83.5,-51c-3.15,-24.01 -1.49,-47.68 5,-71c9.92,-22.12 26.76,-34.79 50.5,-38z" fill="#0b0b0a" id="svg_32"/>
  </g>
  <g id="svg_33" transform="matrix(1 0 0 1 0 0)">
   <path d="m337.5,444.5c44.7,-2.12 60.2,18.21 46.5,61c-14.99,20.36 -33.82,24.86 -56.5,13.5c-18.05,-16.7 -21.88,-36.2 -11.5,-58.5c5.63,-7.47 12.8,-12.81 21.5,-16z" fill="#1f4b2c" id="svg_34"/>
  </g>
  <g id="svg_35">
   <path d="m1012.5,466.5c16,0 32,0 48,0c-0.75,41.73 0.42,83.39 3.5,125c13.2,21.25 31.04,26.08 53.5,14.5c7.76,-5.68 12.93,-13.18 15.5,-22.5c1.35,-38.99 1.85,-77.99 1.5,-117c16,0 32,0 48,0c0,61.33 0,122.67 0,184c-15.33,0 -30.67,0 -46,0c0.36,-9.86 -0.81,-19.52 -3.5,-29c-20,30 -47.16,38.83 -81.5,26.5c-21.08,-9.42 -33.58,-25.59 -37.5,-48.5c-1.18,-44.33 -1.68,-88.66 -1.5,-133z" fill="#f7f5f1" id="svg_36"/>
  </g>
  <g id="svg_37">
   <path d="m1220.5,466.5c16,0 32,0 48,0c0,61.33 0,122.67 0,184c-16,0 -32,0 -48,0c0,-61.33 0,-122.67 0,-184z" fill="#f8f7f2" id="svg_38"/>
  </g>
  <g id="svg_39">
   <path d="m1454.5,615.5c0,11 0,22 0,33c-44,0 -88,0 -132,0c-6.67,0 -13.33,0 -20,0c-0.15,-11.69 0.35,-23.36 1.5,-35c29.08,-36.42 58.91,-72.25 89.5,-107.5c-29.65,-1.37 -59.31,-1.87 -89,-1.5c0,-12.67 0,-25.33 0,-38c50,0 100,0 150,0c0.15,11.69 -0.35,23.36 -1.5,35c-30.78,35.27 -60.61,71.27 -89.5,108c8.23,1.62 16.56,2.45 25,2.5c22,0.5 44,0.67 66,0.5c0,1 0,2 0,3z" fill="#f6f4f0" id="svg_40"/>
  </g>
  <g id="svg_41">
   <path d="m1454.5,615.5c1.69,11.46 2.35,23.12 2,35c-44.85,0.4 -89.51,-0.26 -134,-2c44,0 88,0 132,0c0,-11 0,-22 0,-33z" fill="#a6a4a0" id="svg_42"/>
  </g>
  <g id="svg_19" transform="matrix(1 0 0 1 0 0)">
   <path d="m343.5,158.5c14.12,-0.68 27.45,2.16 40,8.5c9.32,5.66 15.15,13.82 17.5,24.5c2.46,15.55 1.46,30.88 -3,46c-5.41,11.74 -14.24,19.58 -26.5,23.5c-48.27,7.73 -70.11,-12.77 -65.5,-61.5c3.33,-22.16 15.83,-35.82 37.5,-41z" fill="#f8f6f1" id="svg_20"/>
  </g>
 </g>

</svg>